<?xml version="1.0" encoding="UTF-8" standalone="no"?>
		<svg width="24px" height="28px" viewBox="0 0 24 28" version="1.1" xmlns="http://www.w3.org/2000/svg" xmlns:xlink="http://www.w3.org/1999/xlink" >
			<rect fill="#1991a0" width="3222.222222222222" height="2400"/>
			<g transform="scale(11.11111111111111) translate(10, 10)">
				<defs id="SvgjsDefs2382"/><g id="main_text" rel="mainfill" name="main_text" feature="main_text" xmlns:name="mainText_mainfill" groupName="main_text" fill="#fff" transform="translate(-0.7072222875873314, 117.5252593429757) scale(3.214635892404979)"><path d="M11.26 9.84 l0 1.56 l-4.68 0 l0 12.6 l-1.68 0 l0 -12.6 l-4.68 0 l0 -1.56 l11.04 0 z M17.1 9.84 q2.78 0 4.09 0.92 t1.31 2.96 q0 1.5 -0.89 2.47 t-2.65 1.29 l4.02 6.52 l-2.06 0 l-3.84 -6.36 l-2.16 0 l0 6.36 l-1.68 0 l0 -14.16 l3.86 0 z M16.92 16.08 q1.98 0 2.88 -0.55 t0.9 -1.79 q0 -1.2 -0.81 -1.77 t-2.51 -0.57 l-2.46 0 l0 4.68 l2 0 z M31.640000000000004 9.84 l6.02 14.16 l-1.96 0 l-1.44 -3.48 l-7.08 0 l-1.46 3.48 l-1.9 0 l6.24 -14.16 l1.58 0 z M30.78 12 l-2.94 6.96 l5.78 0 l-2.8 -6.96 l-0.04 0 z M39.5 9.84 l4.36 11.64 l0.04 0 l4.5 -11.64 l1.78 0 l-5.54 14.16 l-1.62 0 l-5.42 -14.16 l1.9 0 z M55.62 9.84 q2.78 0 4.09 0.92 t1.31 2.96 q0 1.5 -0.89 2.47 t-2.65 1.29 l4.02 6.52 l-2.06 0 l-3.84 -6.36 l-2.16 0 l0 6.36 l-1.68 0 l0 -14.16 l3.86 0 z M55.44 16.08 q1.98 0 2.88 -0.55 t0.9 -1.79 q0 -1.2 -0.81 -1.77 t-2.51 -0.57 l-2.46 0 l0 4.68 l2 0 z M68.12 9.48 q2.58 0 3.96 1.66 l-1.38 1.2 q-0.8 -1.26 -2.58 -1.3 q-1.34 0 -2.18 0.64 t-0.84 1.74 q0 0.96 0.64 1.52 t2.4 1.1 q2.28 0.66 3.23 1.61 t0.95 2.57 q0 1.88 -1.4 3 t-3.58 1.14 q-1.46 0 -2.6 -0.52 t-1.76 -1.44 l1.44 -1.18 q0.46 0.76 1.28 1.17 t1.74 0.41 q1.26 0 2.17 -0.71 t0.91 -1.75 q0 -0.94 -0.53 -1.48 t-1.75 -0.92 l-1.62 -0.54 q-1.82 -0.62 -2.57 -1.55 t-0.75 -2.29 q0 -1.8 1.34 -2.93 t3.48 -1.15 z M84 9.84 l0 1.56 l-7.22 0 l0 4.44 l6.74 0 l0 1.56 l-6.74 0 l0 5.04 l7.58 0 l0 1.56 l-9.26 0 l0 -14.16 l8.9 0 z"/></g><g id="SvgjsG2384" rel="mainfill" name="symbol" feature="symbol" xmlns:name="symbol_mainfill" fill="#fff" transform="translate(82.70717993278956, 15) scale(1.0777855302727544)"><g><path d="M42.1,50.845l6.092,5.87c0.757-3.54,3.716-6.261,7.375-6.661l-6.651-6.418C48.43,47.264,45.663,50.166,42.1,50.845z"/><path d="M32.171,44.205L20.139,56.412c-1.897,1.945-1.859,5.06,0.085,6.956c0.957,0.934,2.196,1.399,3.435,1.399     c1.279,0,2.557-0.574,3.521-1.56l11.992-12.322C35.67,50.335,32.874,47.655,32.171,44.205z"/><path d="M89.246,52h-9.575l-5.479-5.236L74.933,46h11.034c2.717,0,4.92-1.784,4.92-4.5s-2.203-4.5-4.92-4.5H72.849     c-1.331,0-2.477,0.077-3.402,1.032l-2.122,2.168l-9.198-8.79l0.4-0.411H74.49c1.565,0,3.04-0.626,3.964-1.888L92.598,9.965     c1.606-2.19,1.137-5.183-1.055-6.791c-2.19-1.606-5.267-0.964-6.877,1.227L71.998,22H56.453c-1.326,0-2.595,0.194-3.521,1.142     l-1.679,1.703L47,20.779V4.919C47,2.202,44.217,0,41.5,0C38.784,0,36,2.202,36,4.919v18.036c0,1.387,0.974,2.541,2,3.474     l6.213,5.56l-2.133,2.164c3.433,0.646,6.133,3.353,6.771,6.789l2.499-2.567l9.469,8.473l-3.171,3.239     c3.482,0.471,6.289,3.046,7.104,6.407l3.182-3.279l6.527,5.841C75.366,59.879,76.546,60,77.769,60h11.478     c2.717,0,4.92-1.284,4.92-4S91.963,52,89.246,52z"/><path d="M39.064,34.13L23.796,19.396C22.879,18.511,21.654,18,20.38,18H8.902c-2.716,0-4.919,2.284-4.919,5     c0,2.717,2.203,5,4.919,5h9.492l13.713,13.215C32.657,37.603,35.473,34.743,39.064,34.13z"/><path d="M64.969,59.126c-0.271,3.693-2.896,6.725-6.384,7.605l16.589,15.986c0.954,0.921,2.187,1.315,3.416,1.315     c1.287,0,2.574-0.507,3.539-1.507c1.888-1.956,1.832-5.075-0.126-6.962L64.969,59.126z"/><path d="M48.023,73.733l6.714-6.919c-3.422-0.723-6.076-3.504-6.624-6.986l-10.31,10.533c-1.885,1.948-1.585,5.051,0.353,6.943     L46,84.466v10.637c0,2.715,1.783,4.918,4.5,4.918c2.718,0,4.5-2.203,4.5-4.918V82.395c0-1.326-0.629-2.573-1.576-3.499     L48.023,73.733z"/></g><g><circle cx="40.5" cy="42.517" r="5.1"/><circle cx="56.5" cy="58.517" r="5.101"/></g></g>
			</g>
		</svg>
