<svg id="svg" version="1.1" width="28" height="24" viewBox="0 0 400 400" xmlns="http://www.w3.org/2000/svg" xmlns:xlink="http://www.w3.org/1999/xlink" ><g id="svgg"><path id="path0" d="M175.964 63.159 C 172.089 64.398,168.950 66.982,166.921 70.600 L 165.800 72.600 165.689 100.126 L 165.579 127.653 166.630 129.995 C 167.716 132.416,170.382 135.247,177.373 141.405 C 185.056 148.172,188.400 151.257,188.400 151.578 C 188.400 151.726,187.210 153.073,185.754 154.572 C 183.128 157.277,182.937 157.975,184.821 157.994 C 186.141 158.007,191.901 161.176,193.926 163.003 C 197.244 165.996,199.788 170.209,201.378 175.344 C 201.568 175.957,202.202 175.480,204.979 172.633 L 208.349 169.179 211.661 172.089 C 213.483 173.690,215.263 175.270,215.616 175.600 C 215.969 175.930,217.595 177.385,219.229 178.833 C 226.731 185.482,234.623 192.602,234.849 192.927 C 234.987 193.123,233.938 194.480,232.520 195.942 C 231.102 197.404,229.210 199.352,228.317 200.270 L 226.692 201.940 228.446 202.368 C 235.732 204.146,243.937 211.609,245.426 217.812 C 245.582 218.465,245.790 219.141,245.887 219.313 C 245.984 219.486,248.014 217.611,250.397 215.149 L 254.731 210.671 255.865 211.649 C 256.489 212.188,257.720 213.276,258.600 214.067 C 272.298 226.387,274.293 228.046,276.315 228.806 C 279.582 230.033,316.126 230.029,320.101 228.801 C 330.463 225.601,330.783 212.774,320.600 208.789 C 318.259 207.873,317.819 207.846,302.766 207.686 L 287.332 207.523 284.707 205.061 C 270.939 192.147,271.770 193.153,273.501 191.495 L 274.602 190.440 292.201 190.320 L 309.800 190.200 311.592 189.245 C 321.565 183.930,321.205 171.703,310.933 166.893 L 308.600 165.800 286.400 165.800 L 264.200 165.800 262.134 166.734 C 260.714 167.377,258.983 168.789,256.593 171.253 L 253.116 174.837 250.867 172.718 C 247.722 169.757,248.189 170.200,239.375 161.784 C 234.989 157.595,230.414 153.245,229.208 152.117 C 225.119 148.291,224.167 148.443,252.951 148.312 L 277.400 148.200 279.800 146.898 C 283.002 145.160,279.613 149.474,307.526 111.600 C 310.039 108.190,313.469 103.547,315.148 101.282 C 316.826 99.017,319.100 95.950,320.200 94.466 C 325.407 87.442,326.125 85.937,326.149 82.000 C 326.194 74.367,320.885 69.042,313.200 69.014 C 305.956 68.987,304.255 70.550,291.200 89.226 C 290.650 90.013,287.500 94.393,284.200 98.960 C 280.900 103.526,277.794 107.834,277.299 108.531 C 276.803 109.229,275.948 110.430,275.399 111.200 C 274.851 111.970,273.957 113.230,273.414 114.000 C 272.871 114.770,271.926 116.080,271.313 116.910 C 270.701 117.741,269.390 119.574,268.400 120.984 L 266.600 123.547 242.600 123.673 L 218.600 123.800 216.246 124.902 C 214.672 125.639,212.982 126.940,211.141 128.833 C 207.839 132.228,208.887 132.563,201.832 125.857 L 196.000 120.314 196.000 97.131 C 196.000 74.247,195.989 73.922,195.132 71.874 C 192.048 64.504,183.668 60.694,175.964 63.159 M85.319 113.372 C 73.774 117.031,72.984 133.558,84.103 138.818 L 86.600 139.999 101.200 140.006 C 109.230 140.009,116.007 140.144,116.259 140.306 C 116.671 140.569,122.262 145.926,140.789 163.809 C 143.985 166.894,148.333 171.091,150.451 173.135 L 154.301 176.851 154.570 175.420 C 155.959 168.016,163.790 159.875,171.354 157.970 C 173.640 157.394,173.645 157.457,171.100 155.077 C 169.945 153.997,164.590 148.850,159.200 143.639 C 130.927 116.305,129.953 115.395,127.707 114.200 L 125.452 113.000 106.226 112.919 C 91.137 112.856,86.638 112.953,85.319 113.372 M173.656 167.637 C 168.058 169.340,163.656 175.832,164.094 181.735 C 165.414 199.512,192.000 198.811,192.000 181.000 C 192.000 171.852,182.513 164.941,173.656 167.637 M201.414 186.266 C 200.003 193.786,193.357 201.178,185.766 203.670 L 183.072 204.555 191.036 212.261 C 200.118 221.049,199.323 220.512,199.972 218.300 C 202.165 210.816,209.622 204.015,217.405 202.399 L 219.660 201.931 217.130 199.526 C 215.738 198.203,212.527 195.114,209.994 192.660 C 207.460 190.207,204.558 187.420,203.545 186.467 L 201.702 184.733 201.414 186.266 M153.945 186.715 C 153.865 186.927,146.167 194.817,136.839 204.250 C 117.410 223.895,117.537 223.729,117.537 229.582 C 117.537 237.455,122.700 242.600,130.600 242.600 C 135.838 242.600,137.414 241.856,142.000 237.218 C 155.170 223.898,173.200 205.219,173.200 204.895 C 173.200 204.680,172.345 204.272,171.300 203.988 C 164.480 202.137,158.316 196.519,155.732 189.800 C 154.579 186.801,154.175 186.104,153.945 186.715 M217.521 212.937 C 203.507 218.820,207.629 239.767,222.800 239.767 C 235.157 239.767,241.403 224.736,232.687 215.972 C 228.935 212.199,222.397 210.890,217.521 212.937 M246.009 231.665 C 244.001 239.128,238.986 244.878,231.815 247.937 L 229.212 249.047 237.096 256.623 C 251.290 270.264,255.700 274.512,262.399 281.000 C 266.034 284.520,270.585 288.922,272.512 290.783 C 277.830 295.917,279.226 296.600,284.400 296.600 C 292.476 296.600,297.999 291.368,298.000 283.715 C 298.000 277.363,298.346 277.783,273.188 253.611 C 267.585 248.227,260.479 241.387,257.398 238.411 C 254.317 235.435,250.696 231.949,249.351 230.665 L 246.906 228.330 246.009 231.665 M184.392 245.137 C 167.518 262.316,167.395 262.479,167.410 267.800 C 167.428 274.476,167.833 274.996,185.171 290.600 C 186.148 291.480,188.400 293.523,190.174 295.141 L 193.400 298.082 193.602 314.941 C 193.800 331.496,193.821 331.841,194.743 334.062 C 198.883 344.034,211.798 344.347,216.935 334.600 L 218.200 332.200 218.200 310.800 L 218.200 289.400 217.055 287.225 C 215.850 284.935,213.817 282.785,204.451 273.889 L 198.701 268.429 207.939 258.915 C 216.394 250.205,217.101 249.371,216.288 249.057 C 207.615 245.707,201.950 240.074,199.837 232.700 C 199.474 231.435,199.108 230.400,199.023 230.400 C 198.937 230.400,192.353 237.032,184.392 245.137 " stroke="none" fill="#ffffff" fill-rule="evenodd"></path><path id="path1" d="M1.680 1.680 C 1.308 2.052,1.222 46.809,1.299 201.180 L 1.399 400.200 1.599 201.000 L 1.800 1.800 201.000 1.599 L 400.200 1.399 201.180 1.299 C 46.809 1.222,2.052 1.308,1.680 1.680 " stroke="none" fill="#003399" fill-rule="evenodd"></path><path id="path2" d="M1.867 1.867 C 1.720 2.013,1.600 91.653,1.600 201.067 L 1.600 400.000 200.800 400.000 L 400.000 400.000 400.000 200.800 L 400.000 1.600 201.067 1.600 C 91.653 1.600,2.013 1.720,1.867 1.867 M187.780 63.412 C 190.673 64.856,193.959 68.047,195.247 70.664 L 196.200 72.600 196.312 96.245 L 196.424 119.890 200.312 123.683 C 202.450 125.769,205.107 128.302,206.215 129.313 L 208.229 131.150 211.344 127.982 C 216.103 123.141,214.126 123.440,242.400 123.289 L 266.200 123.162 270.800 116.746 C 273.330 113.218,275.804 109.762,276.297 109.066 C 277.863 106.856,287.390 93.623,291.284 88.248 C 292.100 87.122,293.402 85.300,294.176 84.200 C 301.763 73.426,303.573 71.364,306.959 69.641 C 317.701 64.174,329.941 74.746,326.030 86.113 C 325.246 88.391,324.924 88.917,321.400 93.660 C 320.300 95.141,318.646 97.398,317.725 98.676 C 316.804 99.954,313.713 104.150,310.857 108.000 C 308.000 111.850,304.704 116.306,303.531 117.902 C 302.359 119.499,299.960 122.748,298.200 125.123 C 296.440 127.499,292.840 132.390,290.200 135.994 C 283.910 144.579,282.184 146.421,279.089 147.850 L 276.600 149.000 252.605 149.115 C 236.969 149.190,228.469 149.372,228.205 149.638 C 227.931 149.915,228.897 151.085,231.200 153.263 C 233.070 155.032,238.110 159.852,242.400 163.974 C 246.690 168.096,250.872 172.055,251.694 172.771 L 253.189 174.073 256.923 170.309 C 262.137 165.052,260.045 165.400,286.400 165.400 C 306.157 165.400,308.396 165.466,310.289 166.104 C 321.969 170.044,322.414 185.445,310.980 190.039 C 308.630 190.983,308.383 190.998,291.248 191.198 C 269.341 191.453,270.429 190.832,278.494 198.483 C 281.632 201.460,285.002 204.639,285.982 205.548 L 287.765 207.200 301.809 207.200 C 319.618 207.200,322.073 207.626,325.634 211.332 C 329.512 215.367,329.369 222.698,325.341 226.412 C 321.375 230.067,319.085 230.396,297.600 230.389 C 274.781 230.382,276.614 230.899,266.170 221.528 C 255.779 212.206,255.085 211.600,254.799 211.600 C 254.653 211.600,252.689 213.500,250.434 215.823 C 245.781 220.617,245.807 220.609,244.628 217.383 C 242.097 210.461,234.651 203.946,228.154 202.972 C 225.453 202.567,225.582 202.232,230.236 197.564 C 232.894 194.898,234.423 193.078,234.187 192.863 C 233.469 192.213,221.025 181.116,218.020 178.447 C 216.382 176.991,213.597 174.495,211.832 172.900 C 207.946 169.389,208.761 169.328,204.851 173.419 C 201.337 177.095,201.031 177.203,200.624 174.904 C 199.435 168.184,192.364 160.928,184.700 158.563 C 181.844 157.682,181.827 157.822,185.207 154.448 L 188.015 151.646 186.107 149.876 C 185.058 148.902,183.382 147.403,182.383 146.545 C 180.495 144.925,180.169 144.632,173.144 138.254 C 164.491 130.398,165.219 133.828,165.209 100.915 C 165.199 69.771,165.042 71.286,168.692 67.336 C 173.603 62.024,181.674 60.364,187.780 63.412 M124.397 112.399 C 127.772 113.039,130.184 114.877,139.620 124.000 C 144.513 128.730,149.885 133.922,151.558 135.537 C 153.231 137.153,158.715 142.463,163.745 147.337 C 168.775 152.212,173.140 156.344,173.445 156.520 C 174.536 157.149,173.967 157.857,171.959 158.372 C 164.204 160.359,156.401 168.183,155.380 174.994 C 154.921 178.055,154.620 177.936,148.977 172.464 C 146.105 169.679,139.625 163.419,134.577 158.553 C 129.530 153.688,123.330 147.708,120.800 145.266 L 116.200 140.825 102.384 140.813 C 84.861 140.797,83.010 140.381,78.954 135.555 C 72.259 127.589,76.572 114.383,86.510 112.421 C 88.958 111.938,121.863 111.919,124.397 112.399 M183.891 167.783 C 198.060 174.142,193.526 195.376,178.000 195.376 C 161.195 195.376,158.109 172.280,174.200 166.937 C 176.725 166.098,180.961 166.468,183.891 167.783 M207.600 189.607 C 220.904 202.402,220.744 202.217,218.900 202.632 C 213.160 203.925,209.823 205.686,206.160 209.355 C 203.301 212.219,200.752 216.538,200.153 219.536 C 199.784 221.381,199.500 221.223,194.634 216.459 C 192.195 214.072,188.445 210.442,186.300 208.393 C 182.478 204.741,181.903 204.000,182.892 204.000 C 189.031 204.000,198.804 194.765,200.541 187.322 C 201.364 183.794,201.469 183.713,203.146 185.325 C 203.946 186.093,205.950 188.020,207.600 189.607 M155.581 187.893 C 157.410 195.164,167.239 203.998,173.500 204.000 C 175.274 204.000,176.112 203.046,158.243 221.371 C 139.439 240.654,139.143 240.938,136.528 242.227 C 127.470 246.691,116.285 239.119,116.862 228.914 C 117.124 224.268,118.483 222.138,126.248 214.200 C 141.301 198.813,154.551 185.646,154.817 185.811 C 154.974 185.907,155.317 186.844,155.581 187.893 M226.820 211.975 C 241.534 216.555,240.368 237.274,225.238 240.088 C 210.168 242.890,201.939 222.264,214.746 213.788 C 218.445 211.341,222.719 210.699,226.820 211.975 M250.866 231.369 C 252.920 233.332,259.092 239.272,264.582 244.569 C 297.631 276.457,296.470 275.275,297.612 278.200 C 301.268 287.571,294.510 297.379,284.400 297.373 C 279.003 297.370,277.980 296.775,269.800 288.873 C 257.178 276.679,253.118 272.760,244.591 264.540 C 239.536 259.667,233.825 254.194,231.900 252.379 C 228.009 248.711,227.946 248.601,229.494 248.212 C 237.560 246.188,246.000 236.313,246.000 228.901 C 246.000 226.965,246.551 227.244,250.866 231.369 M200.335 232.500 C 202.784 240.155,209.144 246.473,216.326 248.385 C 218.537 248.974,219.186 248.076,208.800 258.801 C 203.850 263.912,199.800 268.257,199.800 268.456 C 199.800 268.655,203.160 272.009,207.267 275.909 C 219.879 287.886,218.800 284.626,218.800 310.752 C 218.800 330.031,218.759 331.194,218.000 333.399 C 213.831 345.518,197.386 345.129,193.828 332.827 C 193.304 331.015,193.200 328.014,193.200 314.709 L 193.200 298.764 192.281 297.882 C 189.798 295.498,180.862 287.295,174.109 281.200 C 163.314 271.457,163.644 265.598,175.682 253.262 C 187.895 240.747,198.970 229.600,199.192 229.600 C 199.311 229.600,199.825 230.905,200.335 232.500 " stroke="none" fill="#1991a0" fill-rule="evenodd"></path><path id="path3" d="M312.500 68.276 C 312.885 68.376,313.515 68.376,313.900 68.276 C 314.285 68.175,313.970 68.093,313.200 68.093 C 312.430 68.093,312.115 68.175,312.500 68.276 M308.100 68.996 C 307.385 69.307,306.800 69.651,306.800 69.760 C 306.800 69.870,307.385 69.722,308.100 69.432 C 308.815 69.141,309.670 68.805,310.000 68.684 C 310.533 68.488,310.533 68.461,310.000 68.447 C 309.670 68.438,308.815 68.686,308.100 68.996 M320.000 70.078 C 322.558 72.457,324.072 73.633,322.800 72.253 C 322.030 71.418,321.040 70.545,320.600 70.313 C 320.160 70.081,319.890 69.975,320.000 70.078 M303.178 72.300 L 301.800 73.800 303.300 72.422 C 304.696 71.138,304.984 70.800,304.678 70.800 C 304.612 70.800,303.937 71.475,303.178 72.300 M165.389 100.800 C 165.389 116.090,165.439 122.345,165.500 114.700 C 165.561 107.055,165.561 94.545,165.500 86.900 C 165.439 79.255,165.389 85.510,165.389 100.800 M299.200 77.200 C 298.730 77.860,298.436 78.400,298.546 78.400 C 298.656 78.400,299.130 77.860,299.600 77.200 C 300.070 76.540,300.364 76.000,300.254 76.000 C 300.144 76.000,299.670 76.540,299.200 77.200 M297.200 80.000 C 296.730 80.660,296.436 81.200,296.546 81.200 C 296.656 81.200,297.130 80.660,297.600 80.000 C 298.070 79.340,298.364 78.800,298.254 78.800 C 298.144 78.800,297.670 79.340,297.200 80.000 M326.528 82.000 C 326.528 83.430,326.601 84.015,326.689 83.300 C 326.778 82.585,326.778 81.415,326.689 80.700 C 326.601 79.985,326.528 80.570,326.528 82.000 M295.523 82.300 C 294.818 83.121,294.290 84.000,294.501 84.000 C 294.583 84.000,295.049 83.460,295.537 82.800 C 296.501 81.496,296.492 81.172,295.523 82.300 M322.799 91.300 C 322.210 92.104,322.113 92.384,322.545 92.033 C 323.201 91.500,324.193 90.000,323.889 90.000 C 323.813 90.000,323.322 90.585,322.799 91.300 M288.800 91.600 C 288.330 92.260,288.036 92.800,288.146 92.800 C 288.256 92.800,288.730 92.260,289.200 91.600 C 289.670 90.940,289.964 90.400,289.854 90.400 C 289.744 90.400,289.270 90.940,288.800 91.600 M286.800 94.400 C 286.330 95.060,286.036 95.600,286.146 95.600 C 286.256 95.600,286.730 95.060,287.200 94.400 C 287.670 93.740,287.964 93.200,287.854 93.200 C 287.744 93.200,287.270 93.740,286.800 94.400 M284.800 97.200 C 284.330 97.860,284.036 98.400,284.146 98.400 C 284.256 98.400,284.730 97.860,285.200 97.200 C 285.670 96.540,285.964 96.000,285.854 96.000 C 285.744 96.000,285.270 96.540,284.800 97.200 M318.399 97.300 C 317.810 98.104,317.713 98.384,318.145 98.033 C 318.801 97.500,319.793 96.000,319.489 96.000 C 319.413 96.000,318.922 96.585,318.399 97.300 M316.400 100.000 C 315.930 100.660,315.636 101.200,315.746 101.200 C 315.856 101.200,316.330 100.660,316.800 100.000 C 317.270 99.340,317.564 98.800,317.454 98.800 C 317.344 98.800,316.870 99.340,316.400 100.000 M281.123 102.300 C 280.418 103.121,279.890 104.000,280.101 104.000 C 280.183 104.000,280.649 103.460,281.137 102.800 C 282.101 101.496,282.092 101.172,281.123 102.300 M308.400 110.800 C 307.930 111.460,307.636 112.000,307.746 112.000 C 307.856 112.000,308.330 111.460,308.800 110.800 C 309.270 110.140,309.564 109.600,309.454 109.600 C 309.344 109.600,308.870 110.140,308.400 110.800 M96.700 112.300 C 101.595 112.363,109.605 112.363,114.500 112.300 C 119.395 112.236,115.390 112.184,105.600 112.184 C 95.810 112.184,91.805 112.236,96.700 112.300 M129.400 114.650 C 129.620 114.859,131.510 116.640,133.600 118.606 L 137.400 122.183 134.400 119.062 C 132.750 117.345,130.860 115.565,130.200 115.106 C 129.540 114.646,129.180 114.441,129.400 114.650 M304.799 115.700 C 304.210 116.504,304.113 116.784,304.545 116.433 C 305.201 115.900,306.193 114.400,305.889 114.400 C 305.813 114.400,305.322 114.985,304.799 115.700 M76.981 120.037 C 76.629 120.718,76.412 121.345,76.499 121.432 C 76.586 121.519,76.956 120.962,77.322 120.195 C 78.144 118.470,77.859 118.338,76.981 120.037 M300.399 121.700 C 299.810 122.504,299.713 122.784,300.145 122.433 C 300.801 121.900,301.793 120.400,301.489 120.400 C 301.413 120.400,300.922 120.985,300.399 121.700 M200.400 124.200 C 201.595 125.410,202.663 126.400,202.773 126.400 C 202.883 126.400,201.995 125.410,200.800 124.200 C 199.605 122.990,198.537 122.000,198.427 122.000 C 198.317 122.000,199.205 122.990,200.400 124.200 M231.500 123.500 C 237.935 123.562,248.465 123.562,254.900 123.500 C 261.335 123.438,256.070 123.387,243.200 123.387 C 230.330 123.387,225.065 123.438,231.500 123.500 M298.400 124.400 C 297.930 125.060,297.636 125.600,297.746 125.600 C 297.856 125.600,298.330 125.060,298.800 124.400 C 299.270 123.740,299.564 123.200,299.454 123.200 C 299.344 123.200,298.870 123.740,298.400 124.400 M144.380 128.887 C 146.899 131.464,149.044 133.489,149.147 133.387 C 149.249 133.284,149.252 133.155,149.154 133.100 C 149.055 133.045,146.910 131.020,144.387 128.600 L 139.800 124.200 144.380 128.887 M214.303 125.300 C 213.785 125.795,213.640 126.000,213.980 125.756 C 214.321 125.512,214.960 125.112,215.400 124.868 C 215.840 124.624,215.985 124.419,215.722 124.412 C 215.460 124.405,214.821 124.805,214.303 125.300 M206.200 129.600 C 207.059 130.480,207.852 131.200,207.962 131.200 C 208.072 131.200,207.459 130.480,206.600 129.600 C 205.741 128.720,204.948 128.000,204.838 128.000 C 204.728 128.000,205.341 128.720,206.200 129.600 M292.575 132.268 C 291.959 133.076,291.659 133.611,291.909 133.456 C 292.421 133.140,294.153 130.800,293.875 130.800 C 293.776 130.800,293.191 131.461,292.575 132.268 M76.400 131.353 C 76.400 131.782,77.590 134.000,77.821 134.000 C 77.931 134.000,77.723 133.415,77.359 132.700 C 76.617 131.240,76.400 130.936,76.400 131.353 M170.000 135.400 C 171.195 136.610,172.263 137.600,172.373 137.600 C 172.483 137.600,171.595 136.610,170.400 135.400 C 169.205 134.190,168.137 133.200,168.027 133.200 C 167.917 133.200,168.805 134.190,170.000 135.400 M290.400 135.200 C 289.930 135.860,289.636 136.400,289.746 136.400 C 289.856 136.400,290.330 135.860,290.800 135.200 C 291.270 134.540,291.564 134.000,291.454 134.000 C 291.344 134.000,290.870 134.540,290.400 135.200 M288.744 137.500 C 287.593 138.889,287.106 139.600,287.304 139.600 C 287.414 139.600,287.986 138.970,288.573 138.200 C 289.663 136.771,289.795 136.232,288.744 137.500 M157.000 141.137 C 158.760 142.962,160.560 144.647,161.000 144.882 C 161.440 145.116,161.710 145.235,161.600 145.146 C 161.490 145.056,159.690 143.371,157.600 141.400 L 153.800 137.818 157.000 141.137 M174.783 139.700 C 175.764 140.745,176.619 141.600,176.683 141.600 C 176.984 141.600,176.666 141.241,174.900 139.583 L 173.000 137.800 174.783 139.700 M101.995 140.700 L 116.190 140.810 118.995 143.505 L 121.800 146.200 119.011 143.300 L 116.221 140.400 102.011 140.495 L 87.800 140.589 101.995 140.700 M177.200 141.725 C 177.200 141.794,177.785 142.379,178.500 143.025 L 179.800 144.200 178.625 142.900 C 177.530 141.688,177.200 141.416,177.200 141.725 M284.226 143.500 C 283.362 144.605,283.293 144.790,283.963 144.204 C 284.765 143.504,285.823 142.000,285.514 142.000 C 285.451 142.000,284.872 142.675,284.226 143.500 M180.200 144.652 C 180.420 144.845,181.320 145.632,182.199 146.401 L 183.798 147.800 182.599 146.466 C 181.940 145.732,181.040 144.945,180.600 144.717 C 180.160 144.489,179.980 144.460,180.200 144.652 M167.400 151.200 C 169.150 152.960,170.671 154.400,170.781 154.400 C 170.891 154.400,169.550 152.960,167.800 151.200 C 166.050 149.440,164.529 148.000,164.419 148.000 C 164.309 148.000,165.650 149.440,167.400 151.200 M186.000 149.800 C 186.746 150.570,187.447 151.200,187.557 151.200 C 187.667 151.200,187.146 150.570,186.400 149.800 C 185.654 149.030,184.953 148.400,184.843 148.400 C 184.733 148.400,185.254 149.030,186.000 149.800 M124.445 148.900 C 124.544 148.955,126.239 150.530,128.212 152.400 L 131.800 155.800 128.409 152.300 C 126.544 150.375,124.849 148.800,124.642 148.800 C 124.436 148.800,124.347 148.845,124.445 148.900 M227.985 149.418 C 227.488 150.017,229.926 153.200,230.882 153.200 C 231.058 153.200,230.476 152.543,229.587 151.741 C 226.918 149.329,226.139 149.418,251.833 149.195 L 275.400 148.990 251.949 148.895 C 231.214 148.811,228.439 148.872,227.985 149.418 M183.264 156.406 C 182.750 156.835,182.390 157.342,182.464 157.532 C 182.539 157.722,183.019 157.365,183.530 156.739 C 184.617 155.409,184.554 155.331,183.264 156.406 M237.000 159.200 C 238.750 160.960,240.271 162.400,240.381 162.400 C 240.491 162.400,239.150 160.960,237.400 159.200 C 235.650 157.440,234.129 156.000,234.019 156.000 C 233.909 156.000,235.250 157.440,237.000 159.200 M170.200 158.586 C 168.655 159.293,169.374 159.303,171.200 158.600 C 171.970 158.303,172.330 158.055,172.000 158.048 C 171.670 158.042,170.860 158.283,170.200 158.586 M184.800 158.600 C 186.626 159.303,187.345 159.293,185.800 158.586 C 185.140 158.283,184.330 158.042,184.000 158.048 C 183.670 158.055,184.030 158.303,184.800 158.600 M140.000 163.800 C 142.081 165.890,143.874 167.600,143.984 167.600 C 144.094 167.600,142.481 165.890,140.400 163.800 C 138.319 161.710,136.526 160.000,136.416 160.000 C 136.306 160.000,137.919 161.710,140.000 163.800 M161.765 163.831 L 159.400 166.063 161.900 163.942 C 163.275 162.776,164.400 161.772,164.400 161.711 C 164.400 161.408,163.944 161.775,161.765 163.831 M192.441 162.500 C 192.537 162.555,193.512 163.410,194.607 164.400 L 196.600 166.200 194.817 164.300 C 193.836 163.255,192.861 162.400,192.650 162.400 C 192.439 162.400,192.345 162.445,192.441 162.500 M245.400 167.200 C 247.150 168.960,248.671 170.400,248.781 170.400 C 248.891 170.400,247.550 168.960,245.800 167.200 C 244.050 165.440,242.529 164.000,242.419 164.000 C 242.309 164.000,243.650 165.440,245.400 167.200 M275.728 165.500 C 281.629 165.562,291.169 165.562,296.928 165.500 C 302.688 165.437,297.860 165.386,286.200 165.386 C 274.540 165.386,269.828 165.437,275.728 165.500 M176.700 166.689 C 177.415 166.778,178.585 166.778,179.300 166.689 C 180.015 166.601,179.430 166.528,178.000 166.528 C 176.570 166.528,175.985 166.601,176.700 166.689 M173.400 167.200 C 172.896 167.417,172.822 167.544,173.200 167.544 C 173.530 167.544,174.160 167.389,174.600 167.200 C 175.104 166.983,175.178 166.856,174.800 166.856 C 174.470 166.856,173.840 167.011,173.400 167.200 M181.400 167.200 C 181.840 167.389,182.470 167.544,182.800 167.544 C 183.178 167.544,183.104 167.417,182.600 167.200 C 182.160 167.011,181.530 166.856,181.200 166.856 C 180.822 166.856,180.896 166.983,181.400 167.200 M205.787 172.100 L 203.400 174.600 205.891 172.222 L 208.382 169.843 209.491 170.822 L 210.600 171.800 209.630 170.700 C 208.372 169.272,208.550 169.208,205.787 172.100 M150.377 173.685 C 154.211 177.629,155.252 178.099,155.168 175.851 C 155.138 175.026,155.091 175.096,154.552 176.776 C 154.428 177.163,153.096 176.115,150.484 173.576 L 146.600 169.800 150.377 173.685 M212.783 173.700 C 213.764 174.745,214.619 175.600,214.683 175.600 C 214.984 175.600,214.666 175.241,212.900 173.583 L 211.000 171.800 212.783 173.700 M251.897 173.198 C 253.166 174.549,253.208 174.562,253.897 173.811 C 254.569 173.078,254.568 173.068,253.886 173.583 C 253.261 174.054,253.009 173.977,251.886 172.970 L 250.600 171.818 251.897 173.198 M318.039 172.800 C 318.024 172.910,318.267 173.810,318.579 174.800 C 318.891 175.790,319.150 176.240,319.155 175.800 C 319.163 175.103,318.108 172.271,318.039 172.800 M215.200 175.725 C 215.200 175.794,215.785 176.379,216.500 177.025 L 217.800 178.200 216.625 176.900 C 215.530 175.688,215.200 175.416,215.200 175.725 M218.200 178.652 C 218.420 178.845,219.320 179.632,220.199 180.401 L 221.798 181.800 220.599 180.466 C 219.940 179.732,219.040 178.945,218.600 178.717 C 218.160 178.489,217.980 178.460,218.200 178.652 M318.710 181.000 C 318.570 181.660,318.351 182.560,318.222 183.000 C 318.094 183.440,318.270 183.194,318.614 182.453 C 318.959 181.712,319.178 180.812,319.103 180.453 C 319.023 180.075,318.857 180.306,318.710 181.000 M224.000 183.800 C 224.746 184.570,225.447 185.200,225.557 185.200 C 225.667 185.200,225.146 184.570,224.400 183.800 C 223.654 183.030,222.953 182.400,222.843 182.400 C 222.733 182.400,223.254 183.030,224.000 183.800 M201.228 184.748 C 200.993 185.188,200.816 185.874,200.836 186.274 C 200.856 186.673,201.048 186.389,201.262 185.643 L 201.653 184.285 203.426 186.026 C 204.402 186.983,205.183 187.594,205.162 187.383 C 205.048 186.216,201.657 183.945,201.228 184.748 M316.626 185.500 C 315.762 186.605,315.693 186.790,316.363 186.204 C 317.165 185.504,318.223 184.000,317.914 184.000 C 317.851 184.000,317.272 184.675,316.626 185.500 M164.400 186.153 C 164.400 186.582,165.590 188.800,165.821 188.800 C 165.931 188.800,165.723 188.215,165.359 187.500 C 164.617 186.040,164.400 185.736,164.400 186.153 M228.000 187.400 C 228.746 188.170,229.447 188.800,229.557 188.800 C 229.667 188.800,229.146 188.170,228.400 187.400 C 227.654 186.630,226.953 186.000,226.843 186.000 C 226.733 186.000,227.254 186.630,228.000 187.400 M143.183 197.022 C 137.362 202.863,132.517 207.768,132.415 207.922 C 132.314 208.075,137.129 203.341,143.115 197.403 C 149.102 191.464,154.000 186.559,154.000 186.503 C 154.000 186.199,152.916 187.252,143.183 197.022 M230.800 189.725 C 230.800 189.794,231.385 190.379,232.100 191.025 L 233.400 192.200 232.225 190.900 C 231.130 189.688,230.800 189.416,230.800 189.725 M282.500 191.100 C 287.065 191.164,294.535 191.164,299.100 191.100 C 303.665 191.035,299.930 190.983,290.800 190.983 C 281.670 190.983,277.935 191.035,282.500 191.100 M213.200 195.400 C 215.060 197.270,216.672 198.800,216.782 198.800 C 216.892 198.800,215.460 197.270,213.600 195.400 C 211.740 193.530,210.128 192.000,210.018 192.000 C 209.908 192.000,211.340 193.530,213.200 195.400 M272.640 192.735 C 272.526 192.919,273.191 193.774,274.117 194.635 L 275.800 196.200 274.292 194.575 C 273.462 193.681,272.907 192.826,273.059 192.675 C 273.210 192.524,273.224 192.400,273.090 192.400 C 272.957 192.400,272.754 192.551,272.640 192.735 M229.806 197.994 C 225.928 201.887,225.243 203.254,227.458 202.684 C 228.069 202.527,228.041 202.485,227.300 202.446 C 225.930 202.376,226.105 202.110,230.292 197.907 C 232.433 195.758,234.095 194.000,233.985 194.000 C 233.875 194.000,231.995 195.797,229.806 197.994 M173.200 194.782 C 173.530 195.005,174.145 195.191,174.567 195.194 C 175.590 195.202,175.271 194.973,173.800 194.644 C 172.924 194.448,172.762 194.485,173.200 194.782 M176.700 195.489 C 177.415 195.578,178.585 195.578,179.300 195.489 C 180.015 195.401,179.430 195.328,178.000 195.328 C 176.570 195.328,175.985 195.401,176.700 195.489 M161.374 197.893 C 162.240 198.824,163.035 199.499,163.141 199.393 C 163.247 199.287,163.256 199.155,163.162 199.100 C 163.068 199.045,162.273 198.370,161.396 197.601 L 159.800 196.201 161.374 197.893 M193.600 198.470 C 192.068 199.888,191.886 200.139,193.000 199.297 C 194.484 198.176,196.334 196.378,195.962 196.417 C 195.873 196.427,194.810 197.351,193.600 198.470 M282.000 202.141 C 283.210 203.416,284.560 204.650,285.000 204.884 C 285.440 205.117,285.710 205.231,285.600 205.136 C 285.490 205.042,284.140 203.808,282.600 202.394 L 279.800 199.823 282.000 202.141 M164.800 200.555 C 164.800 200.831,167.621 202.512,167.794 202.339 C 167.878 202.255,167.238 201.780,166.373 201.282 C 165.508 200.784,164.800 200.457,164.800 200.555 M182.400 204.245 C 182.400 204.453,183.615 205.788,185.100 207.212 L 187.800 209.800 185.200 207.010 C 183.770 205.476,182.555 204.141,182.500 204.044 C 182.445 203.946,182.400 204.037,182.400 204.245 M211.900 204.629 C 210.349 205.470,210.525 205.761,212.100 204.959 C 213.608 204.193,213.875 203.994,213.367 204.016 C 213.165 204.025,212.505 204.301,211.900 204.629 M232.033 204.149 C 232.445 204.517,234.800 205.600,234.800 205.421 C 234.800 205.190,232.582 204.000,232.153 204.000 C 231.996 204.000,231.942 204.067,232.033 204.149 M286.962 206.700 L 287.724 207.600 302.362 207.505 L 317.000 207.410 302.426 207.300 C 289.269 207.201,287.772 207.122,287.026 206.495 C 286.202 205.802,286.202 205.802,286.962 206.700 M165.595 213.500 L 159.800 219.400 165.700 213.605 C 168.945 210.418,171.600 207.763,171.600 207.705 C 171.600 207.419,170.978 208.019,165.595 213.500 M205.600 209.400 C 204.628 210.390,203.923 211.200,204.033 211.200 C 204.143 211.200,205.028 210.390,206.000 209.400 C 206.972 208.410,207.677 207.600,207.567 207.600 C 207.457 207.600,206.572 208.410,205.600 209.400 M240.013 209.900 C 241.204 211.275,242.243 212.400,242.323 212.400 C 242.597 212.400,240.076 209.397,238.964 208.400 C 238.351 207.850,238.823 208.525,240.013 209.900 M221.700 211.487 C 222.305 211.578,223.295 211.578,223.900 211.487 C 224.505 211.395,224.010 211.320,222.800 211.320 C 221.590 211.320,221.095 211.395,221.700 211.487 M251.789 214.100 L 249.000 217.000 251.859 214.251 C 253.723 212.459,254.893 211.611,255.221 211.813 C 255.547 212.014,255.623 211.961,255.438 211.662 C 254.966 210.899,254.692 211.082,251.789 214.100 M194.200 216.000 C 196.171 217.980,197.873 219.600,197.983 219.600 C 198.093 219.600,196.571 217.980,194.600 216.000 C 192.629 214.020,190.927 212.400,190.817 212.400 C 190.707 212.400,192.229 214.020,194.200 216.000 M256.200 212.652 C 256.420 212.845,257.320 213.632,258.199 214.401 L 259.798 215.800 258.599 214.466 C 257.940 213.732,257.040 212.945,256.600 212.717 C 256.160 212.489,255.980 212.460,256.200 212.652 M122.591 218.100 L 119.400 221.400 122.700 218.209 C 125.765 215.246,126.182 214.800,125.891 214.800 C 125.830 214.800,124.345 216.285,122.591 218.100 M262.000 217.800 C 262.746 218.570,263.447 219.200,263.557 219.200 C 263.667 219.200,263.146 218.570,262.400 217.800 C 261.654 217.030,260.953 216.400,260.843 216.400 C 260.733 216.400,261.254 217.030,262.000 217.800 M266.000 221.400 C 266.746 222.170,267.447 222.800,267.557 222.800 C 267.667 222.800,267.146 222.170,266.400 221.400 C 265.654 220.630,264.953 220.000,264.843 220.000 C 264.733 220.000,265.254 220.630,266.000 221.400 M236.468 221.600 C 236.488 222.639,237.118 224.346,237.132 223.400 C 237.138 222.960,236.989 222.240,236.800 221.800 C 236.589 221.310,236.461 221.232,236.468 221.600 M326.694 224.503 L 325.988 225.800 326.794 224.856 C 327.480 224.052,327.846 223.194,327.500 223.203 C 327.445 223.204,327.082 223.789,326.694 224.503 M268.800 223.725 C 268.800 223.794,269.385 224.379,270.100 225.025 L 271.400 226.200 270.225 224.900 C 269.130 223.688,268.800 223.416,268.800 223.725 M150.394 229.100 L 145.400 234.200 150.500 229.206 C 153.305 226.459,155.600 224.164,155.600 224.106 C 155.600 223.819,155.033 224.363,150.394 229.100 M117.052 226.500 C 116.733 227.692,116.784 232.019,117.128 232.885 C 117.278 233.262,117.400 231.777,117.400 229.585 C 117.400 225.213,117.399 225.205,117.052 226.500 M246.054 228.700 C 246.101 229.643,246.134 229.672,246.282 228.900 C 246.522 227.655,246.681 227.721,249.187 230.100 L 251.400 232.200 249.214 229.900 C 246.783 227.343,245.972 227.035,246.054 228.700 M321.600 228.600 C 321.050 228.914,320.780 229.172,321.000 229.172 C 321.220 229.172,321.850 228.914,322.400 228.600 C 322.950 228.286,323.220 228.028,323.000 228.028 C 322.780 228.028,322.150 228.286,321.600 228.600 M289.327 230.300 C 294.127 230.364,301.867 230.363,306.527 230.299 C 311.187 230.236,307.260 230.183,297.800 230.183 C 288.340 230.183,284.527 230.236,289.327 230.300 M190.396 238.300 L 183.000 245.800 190.500 238.404 C 197.468 231.532,198.181 230.800,197.896 230.800 C 197.839 230.800,194.464 234.175,190.396 238.300 M200.229 233.200 C 200.376 233.750,200.664 234.470,200.867 234.800 C 201.125 235.217,201.157 235.095,200.971 234.400 C 200.824 233.850,200.536 233.130,200.333 232.800 C 200.075 232.383,200.043 232.505,200.229 233.200 M234.399 234.100 C 233.810 234.904,233.713 235.184,234.145 234.833 C 234.801 234.300,235.793 232.800,235.489 232.800 C 235.413 232.800,234.922 233.385,234.399 234.100 M258.284 238.791 C 260.751 241.306,262.821 243.282,262.884 243.182 C 262.948 243.082,260.930 241.024,258.400 238.609 L 253.800 234.217 258.284 238.791 M212.400 236.111 C 212.400 236.187,212.985 236.678,213.700 237.201 C 214.504 237.790,214.784 237.887,214.433 237.455 C 213.900 236.799,212.400 235.807,212.400 236.111 M231.722 237.029 L 230.600 238.058 231.900 237.154 C 232.615 236.657,233.200 236.193,233.200 236.125 C 233.200 235.809,232.758 236.080,231.722 237.029 M242.678 238.100 C 242.130 239.035,240.926 240.700,240.004 241.800 L 238.328 243.800 240.281 241.716 C 242.023 239.858,244.353 236.400,243.864 236.400 C 243.760 236.400,243.227 237.165,242.678 238.100 M202.349 237.800 C 202.565 238.240,203.034 238.960,203.393 239.400 L 204.044 240.200 203.651 239.400 C 203.435 238.960,202.966 238.240,202.607 237.800 L 201.956 237.000 202.349 237.800 M221.700 240.287 C 222.305 240.378,223.295 240.378,223.900 240.287 C 224.505 240.195,224.010 240.120,222.800 240.120 C 221.590 240.120,221.095 240.195,221.700 240.287 M205.800 242.400 C 206.659 243.280,207.452 244.000,207.562 244.000 C 207.672 244.000,207.059 243.280,206.200 242.400 C 205.341 241.520,204.548 240.800,204.438 240.800 C 204.328 240.800,204.941 241.520,205.800 242.400 M129.500 243.489 C 130.215 243.578,131.385 243.578,132.100 243.489 C 132.815 243.401,132.230 243.328,130.800 243.328 C 129.370 243.328,128.785 243.401,129.500 243.489 M211.600 246.596 C 211.600 246.870,214.049 248.084,214.232 247.901 C 214.319 247.814,213.762 247.444,212.995 247.078 C 212.228 246.712,211.600 246.495,211.600 246.596 M270.200 250.400 C 272.392 252.600,274.275 254.400,274.385 254.400 C 274.495 254.400,272.792 252.600,270.600 250.400 C 268.408 248.200,266.525 246.400,266.415 246.400 C 266.305 246.400,268.008 248.200,270.200 250.400 M228.400 248.719 C 228.400 248.894,229.165 249.749,230.100 250.619 L 231.800 252.200 230.292 250.575 C 229.462 249.681,228.907 248.826,229.059 248.675 C 229.210 248.524,229.123 248.400,228.867 248.400 C 228.610 248.400,228.400 248.543,228.400 248.719 M214.612 252.395 L 211.423 255.800 214.793 252.515 C 216.647 250.708,218.082 249.176,217.982 249.110 C 217.882 249.043,216.365 250.522,214.612 252.395 M173.593 255.500 L 169.400 259.800 173.700 255.607 C 177.694 251.713,178.182 251.200,177.893 251.200 C 177.834 251.200,175.899 253.135,173.593 255.500 M234.445 254.900 C 234.544 254.955,236.239 256.530,238.212 258.400 L 241.800 261.800 238.409 258.300 C 236.544 256.375,234.849 254.800,234.642 254.800 C 234.436 254.800,234.347 254.845,234.445 254.900 M281.400 261.200 C 283.150 262.960,284.671 264.400,284.781 264.400 C 284.891 264.400,283.550 262.960,281.800 261.200 C 280.050 259.440,278.529 258.000,278.419 258.000 C 278.309 258.000,279.650 259.440,281.400 261.200 M203.193 264.300 L 199.000 268.600 203.300 264.407 C 205.665 262.101,207.600 260.166,207.600 260.107 C 207.600 259.818,207.087 260.306,203.193 264.300 M167.246 263.639 C 167.001 264.343,166.812 265.298,166.827 265.760 C 166.842 266.222,167.096 265.700,167.392 264.600 C 168.004 262.321,167.914 261.724,167.246 263.639 M250.000 269.800 C 252.081 271.890,253.874 273.600,253.984 273.600 C 254.094 273.600,252.481 271.890,250.400 269.800 C 248.319 267.710,246.526 266.000,246.416 266.000 C 246.306 266.000,247.919 267.710,250.000 269.800 M292.000 271.400 C 293.860 273.270,295.472 274.800,295.582 274.800 C 295.692 274.800,294.260 273.270,292.400 271.400 C 290.540 269.530,288.928 268.000,288.818 268.000 C 288.708 268.000,290.140 269.530,292.000 271.400 M207.000 276.000 C 208.971 277.980,210.673 279.600,210.783 279.600 C 210.893 279.600,209.371 277.980,207.400 276.000 C 205.429 274.020,203.727 272.400,203.617 272.400 C 203.507 272.400,205.029 274.020,207.000 276.000 M261.000 280.400 C 263.412 282.820,265.476 284.800,265.586 284.800 C 265.696 284.800,263.812 282.820,261.400 280.400 C 258.988 277.980,256.924 276.000,256.814 276.000 C 256.704 276.000,258.588 277.980,261.000 280.400 M171.200 278.600 C 171.946 279.370,172.647 280.000,172.757 280.000 C 172.867 280.000,172.346 279.370,171.600 278.600 C 170.854 277.830,170.153 277.200,170.043 277.200 C 169.933 277.200,170.454 277.830,171.200 278.600 M175.000 282.000 C 176.083 283.100,177.060 284.000,177.170 284.000 C 177.280 284.000,176.483 283.100,175.400 282.000 C 174.317 280.900,173.340 280.000,173.230 280.000 C 173.120 280.000,173.917 280.900,175.000 282.000 M213.600 282.200 C 214.346 282.970,215.047 283.600,215.157 283.600 C 215.267 283.600,214.746 282.970,214.000 282.200 C 213.254 281.430,212.553 280.800,212.443 280.800 C 212.333 280.800,212.854 281.430,213.600 282.200 M298.514 283.400 C 298.517 284.500,298.595 284.903,298.687 284.295 C 298.779 283.686,298.777 282.786,298.682 282.295 C 298.587 281.803,298.511 282.300,298.514 283.400 M179.583 286.100 C 181.241 287.866,181.600 288.184,181.600 287.883 C 181.600 287.819,180.745 286.964,179.700 285.983 L 177.800 284.200 179.583 286.100 M271.800 290.800 C 273.550 292.560,275.071 294.000,275.181 294.000 C 275.291 294.000,273.950 292.560,272.200 290.800 C 270.450 289.040,268.929 287.600,268.819 287.600 C 268.709 287.600,270.050 289.040,271.800 290.800 M182.438 288.900 C 182.532 288.955,183.327 289.630,184.204 290.400 L 185.800 291.800 184.422 290.300 C 183.663 289.475,182.868 288.800,182.655 288.800 C 182.441 288.800,182.344 288.845,182.438 288.900 M218.501 291.400 C 218.505 292.280,218.587 292.593,218.683 292.095 C 218.779 291.598,218.775 290.878,218.675 290.495 C 218.575 290.113,218.496 290.520,218.501 291.400 M186.400 292.466 C 186.510 292.562,187.770 293.706,189.200 295.008 L 191.800 297.376 189.800 295.258 C 188.700 294.093,187.440 292.949,187.000 292.716 C 186.560 292.482,186.290 292.370,186.400 292.466 M292.600 294.650 C 291.881 295.262,291.734 295.505,292.233 295.257 C 292.966 294.893,294.341 293.576,293.949 293.614 C 293.867 293.622,293.260 294.088,292.600 294.650 M279.400 296.614 C 280.060 296.917,280.960 297.160,281.400 297.155 C 281.840 297.150,281.390 296.891,280.400 296.579 C 278.179 295.880,277.822 295.892,279.400 296.614 M283.300 297.487 C 283.905 297.578,284.895 297.578,285.500 297.487 C 286.105 297.395,285.610 297.320,284.400 297.320 C 283.190 297.320,282.695 297.395,283.300 297.487 M193.102 310.337 C 193.159 317.082,193.255 324.580,193.317 327.000 C 193.379 329.420,193.465 324.110,193.508 315.200 C 193.552 306.290,193.456 298.792,193.294 298.537 C 193.132 298.283,193.046 303.593,193.102 310.337 M218.509 330.000 C 218.509 330.990,218.587 331.395,218.682 330.900 C 218.778 330.405,218.778 329.595,218.682 329.100 C 218.587 328.605,218.509 329.010,218.509 330.000 M216.315 336.242 C 215.719 337.209,215.311 338.000,215.410 338.000 C 215.693 338.000,217.735 334.801,217.559 334.634 C 217.471 334.552,216.912 335.275,216.315 336.242 M213.215 339.616 C 211.408 341.161,211.851 341.149,213.800 339.600 C 214.631 338.940,215.150 338.407,214.955 338.416 C 214.760 338.425,213.977 338.965,213.215 339.616 M205.100 342.282 C 205.595 342.378,206.405 342.378,206.900 342.282 C 207.395 342.187,206.990 342.109,206.000 342.109 C 205.010 342.109,204.605 342.187,205.100 342.282 " stroke="none" fill="#4ca9b4" fill-rule="evenodd"></path><path id="path4" d="M181.400 62.412 C 183.160 62.575,185.120 62.914,185.755 63.165 C 186.391 63.417,186.994 63.540,187.095 63.438 C 187.529 63.004,182.849 62.005,180.627 62.057 L 178.200 62.115 181.400 62.412 M175.400 62.986 C 173.822 63.708,174.179 63.720,176.400 63.021 C 177.390 62.709,177.840 62.450,177.400 62.445 C 176.960 62.440,176.060 62.683,175.400 62.986 M169.178 67.100 L 167.800 68.600 169.300 67.222 C 170.125 66.463,170.800 65.788,170.800 65.722 C 170.800 65.416,170.462 65.704,169.178 67.100 M192.168 67.200 C 194.264 69.643,194.685 70.026,193.704 68.600 C 193.250 67.940,192.371 66.950,191.750 66.400 C 191.001 65.736,191.141 66.004,192.168 67.200 M309.917 68.728 C 309.542 68.878,311.038 69.000,313.242 69.000 C 315.446 69.000,316.833 68.883,316.325 68.740 C 315.094 68.394,310.777 68.386,309.917 68.728 M319.200 70.232 C 320.190 70.794,321.719 71.916,322.597 72.727 C 324.172 74.179,324.178 74.180,322.997 72.846 C 321.758 71.445,318.562 69.196,317.822 69.205 C 317.590 69.207,318.210 69.669,319.200 70.232 M194.428 70.200 C 194.428 70.420,194.686 71.050,195.000 71.600 C 195.314 72.150,195.572 72.420,195.572 72.200 C 195.572 71.980,195.314 71.350,195.000 70.800 C 194.686 70.250,194.428 69.980,194.428 70.200 M305.400 70.753 C 304.740 71.165,303.570 72.194,302.800 73.039 C 301.473 74.497,301.505 74.484,303.422 72.788 C 304.534 71.805,305.794 70.786,306.222 70.524 C 306.650 70.261,306.910 70.037,306.800 70.025 C 306.690 70.013,306.060 70.340,305.400 70.753 M324.678 75.795 C 325.044 76.562,325.414 77.119,325.501 77.032 C 325.684 76.849,324.470 74.400,324.196 74.400 C 324.095 74.400,324.312 75.028,324.678 75.795 M300.400 76.000 C 299.930 76.660,299.636 77.200,299.746 77.200 C 299.856 77.200,300.330 76.660,300.800 76.000 C 301.270 75.340,301.564 74.800,301.454 74.800 C 301.344 74.800,300.870 75.340,300.400 76.000 M196.097 97.811 L 196.000 120.221 198.900 123.011 L 201.800 125.800 199.103 122.993 L 196.407 120.187 196.300 97.793 L 196.193 75.400 196.097 97.811 M298.400 78.800 C 297.930 79.460,297.636 80.000,297.746 80.000 C 297.856 80.000,298.330 79.460,298.800 78.800 C 299.270 78.140,299.564 77.600,299.454 77.600 C 299.344 77.600,298.870 78.140,298.400 78.800 M295.715 82.500 C 293.981 84.767,293.066 86.120,293.409 85.913 C 293.881 85.627,296.537 82.000,296.274 82.000 C 296.177 82.000,295.926 82.225,295.715 82.500 M324.683 87.711 C 324.093 88.860,323.316 90.250,322.956 90.800 L 322.302 91.800 323.165 90.800 C 324.132 89.681,326.136 86.002,325.905 85.771 C 325.823 85.689,325.273 86.562,324.683 87.711 M290.436 89.900 C 289.452 91.338,289.392 91.508,290.188 90.600 C 291.246 89.392,292.153 88.000,291.882 88.000 C 291.801 88.000,291.151 88.855,290.436 89.900 M320.800 93.600 C 320.330 94.260,320.036 94.800,320.146 94.800 C 320.256 94.800,320.730 94.260,321.200 93.600 C 321.670 92.940,321.964 92.400,321.854 92.400 C 321.744 92.400,321.270 92.940,320.800 93.600 M319.123 95.900 C 318.418 96.721,317.890 97.600,318.101 97.600 C 318.183 97.600,318.649 97.060,319.137 96.400 C 320.101 95.096,320.092 94.772,319.123 95.900 M282.800 100.400 C 282.330 101.060,282.036 101.600,282.146 101.600 C 282.256 101.600,282.730 101.060,283.200 100.400 C 283.670 99.740,283.964 99.200,283.854 99.200 C 283.744 99.200,283.270 99.740,282.800 100.400 M314.971 101.500 C 314.353 102.325,313.412 103.630,312.879 104.400 L 311.911 105.800 312.955 104.600 C 314.301 103.053,316.502 100.000,316.272 100.000 C 316.175 100.000,315.589 100.675,314.971 101.500 M280.800 103.200 C 280.330 103.860,280.036 104.400,280.146 104.400 C 280.256 104.400,280.730 103.860,281.200 103.200 C 281.670 102.540,281.964 102.000,281.854 102.000 C 281.744 102.000,281.270 102.540,280.800 103.200 M278.800 106.000 C 278.330 106.660,278.036 107.200,278.146 107.200 C 278.256 107.200,278.730 106.660,279.200 106.000 C 279.670 105.340,279.964 104.800,279.854 104.800 C 279.744 104.800,279.270 105.340,278.800 106.000 M309.970 108.300 C 309.021 109.565,308.513 110.383,308.841 110.118 C 309.515 109.575,312.146 106.000,311.873 106.000 C 311.776 106.000,310.919 107.035,309.970 108.300 M276.343 109.300 C 275.696 110.222,275.636 110.435,276.137 110.033 C 276.850 109.460,277.787 108.000,277.441 108.000 C 277.339 108.000,276.844 108.585,276.343 109.300 M274.343 112.100 C 273.696 113.022,273.636 113.235,274.137 112.833 C 274.850 112.260,275.787 110.800,275.441 110.800 C 275.339 110.800,274.844 111.385,274.343 112.100 M307.200 112.000 C 306.730 112.660,306.436 113.200,306.546 113.200 C 306.656 113.200,307.130 112.660,307.600 112.000 C 308.070 111.340,308.364 110.800,308.254 110.800 C 308.144 110.800,307.670 111.340,307.200 112.000 M85.656 112.851 C 84.917 113.068,84.387 113.320,84.479 113.412 C 84.570 113.503,85.303 113.397,86.108 113.174 C 87.865 112.689,124.997 112.834,126.200 113.330 L 127.000 113.660 126.200 113.130 C 125.201 112.468,87.839 112.211,85.656 112.851 M272.343 114.900 C 271.696 115.822,271.636 116.035,272.137 115.633 C 272.850 115.060,273.787 113.600,273.441 113.600 C 273.339 113.600,272.844 114.185,272.343 114.900 M305.544 114.300 C 304.393 115.689,303.906 116.400,304.104 116.400 C 304.214 116.400,304.786 115.770,305.373 115.000 C 306.463 113.571,306.595 113.032,305.544 114.300 M81.058 115.418 C 80.036 116.198,79.200 116.934,79.200 117.052 C 79.200 117.233,81.727 115.413,82.980 114.329 C 84.046 113.406,82.675 114.183,81.058 115.418 M133.600 118.937 C 135.470 120.872,137.360 122.645,137.800 122.876 C 138.240 123.108,138.420 123.134,138.200 122.934 C 137.980 122.733,136.090 120.961,134.000 118.994 L 130.200 115.419 133.600 118.937 M270.343 117.700 C 269.696 118.622,269.636 118.835,270.137 118.433 C 270.850 117.860,271.787 116.400,271.441 116.400 C 271.339 116.400,270.844 116.985,270.343 117.700 M302.800 118.000 C 302.330 118.660,302.036 119.200,302.146 119.200 C 302.256 119.200,302.730 118.660,303.200 118.000 C 303.670 117.340,303.964 116.800,303.854 116.800 C 303.744 116.800,303.270 117.340,302.800 118.000 M268.400 120.400 C 267.930 121.060,267.636 121.600,267.746 121.600 C 267.856 121.600,268.330 121.060,268.800 120.400 C 269.270 119.740,269.564 119.200,269.454 119.200 C 269.344 119.200,268.870 119.740,268.400 120.400 M301.144 120.300 C 299.993 121.689,299.506 122.400,299.704 122.400 C 299.814 122.400,300.386 121.770,300.973 121.000 C 302.063 119.571,302.195 119.032,301.144 120.300 M76.446 122.039 C 76.201 122.743,76.013 123.518,76.028 123.760 C 76.044 124.002,76.314 123.496,76.630 122.635 C 76.945 121.774,77.133 121.000,77.048 120.915 C 76.962 120.829,76.692 121.335,76.446 122.039 M143.600 128.600 C 146.343 131.350,148.678 133.600,148.788 133.600 C 148.898 133.600,146.743 131.350,144.000 128.600 C 141.257 125.850,138.922 123.600,138.812 123.600 C 138.702 123.600,140.857 125.850,143.600 128.600 M215.700 124.789 C 214.765 125.214,214.000 125.650,214.000 125.758 C 214.000 125.940,217.590 124.483,217.967 124.148 C 218.399 123.764,217.233 124.093,215.700 124.789 M296.975 125.868 C 296.359 126.676,296.059 127.211,296.309 127.056 C 296.821 126.740,298.553 124.400,298.275 124.400 C 298.176 124.400,297.591 125.061,296.975 125.868 M294.800 128.800 C 294.330 129.460,294.036 130.000,294.146 130.000 C 294.256 130.000,294.730 129.460,295.200 128.800 C 295.670 128.140,295.964 127.600,295.854 127.600 C 295.744 127.600,295.270 128.140,294.800 128.800 M205.983 129.700 C 207.919 131.763,208.414 131.950,209.251 130.935 C 209.751 130.328,209.716 130.314,208.854 130.773 C 207.988 131.235,207.753 131.131,206.054 129.538 L 204.200 127.800 205.983 129.700 M76.048 129.200 C 76.042 129.530,76.283 130.340,76.586 131.000 C 77.293 132.545,77.303 131.826,76.600 130.000 C 76.303 129.230,76.055 128.870,76.048 129.200 M166.000 129.353 C 166.000 129.782,167.190 132.000,167.421 132.000 C 167.531 132.000,167.323 131.415,166.959 130.700 C 166.217 129.240,166.000 128.936,166.000 129.353 M170.400 135.400 C 171.817 136.830,173.067 138.000,173.177 138.000 C 173.287 138.000,172.217 136.830,170.800 135.400 C 169.383 133.970,168.133 132.800,168.023 132.800 C 167.913 132.800,168.983 133.970,170.400 135.400 M153.193 137.700 C 155.499 140.065,157.434 142.000,157.493 142.000 C 157.782 142.000,157.294 141.487,153.300 137.593 L 149.000 133.400 153.193 137.700 M78.703 135.042 C 79.943 136.815,83.923 139.649,85.080 139.581 C 85.256 139.571,84.525 139.108,83.456 138.551 C 82.386 137.995,80.684 136.698,79.673 135.670 C 78.411 134.386,78.107 134.189,78.703 135.042 M289.200 136.400 C 288.730 137.060,288.436 137.600,288.546 137.600 C 288.656 137.600,289.130 137.060,289.600 136.400 C 290.070 135.740,290.364 135.200,290.254 135.200 C 290.144 135.200,289.670 135.740,289.200 136.400 M175.374 139.893 C 176.240 140.824,177.035 141.499,177.141 141.393 C 177.247 141.287,177.256 141.155,177.162 141.100 C 177.068 141.045,176.273 140.370,175.396 139.601 L 173.800 138.201 175.374 139.893 M286.800 139.600 C 286.330 140.260,286.036 140.800,286.146 140.800 C 286.256 140.800,286.730 140.260,287.200 139.600 C 287.670 138.940,287.964 138.400,287.854 138.400 C 287.744 138.400,287.270 138.940,286.800 139.600 M94.300 140.299 C 98.315 140.365,104.885 140.365,108.900 140.299 C 112.915 140.234,109.630 140.181,101.600 140.181 C 93.570 140.181,90.285 140.234,94.300 140.299 M120.200 144.340 C 122.400 146.603,124.524 148.633,124.919 148.851 C 125.314 149.070,123.694 147.363,121.319 145.060 C 115.621 139.533,115.370 139.372,120.200 144.340 M285.123 141.900 C 284.418 142.721,283.890 143.600,284.101 143.600 C 284.183 143.600,284.649 143.060,285.137 142.400 C 286.101 141.096,286.092 140.772,285.123 141.900 M178.800 142.950 C 179.350 143.571,180.340 144.450,181.000 144.904 C 182.426 145.885,182.043 145.464,179.600 143.368 C 178.404 142.341,178.136 142.201,178.800 142.950 M160.200 144.662 C 160.420 144.860,162.670 146.993,165.200 149.403 L 169.800 153.784 165.600 149.465 C 163.290 147.090,161.040 144.956,160.600 144.724 C 160.160 144.492,159.980 144.464,160.200 144.662 M185.386 148.867 L 188.200 151.534 186.215 153.567 C 185.123 154.685,184.378 155.600,184.558 155.600 C 184.905 155.600,188.388 151.954,188.396 151.583 C 188.401 151.340,185.641 148.712,183.786 147.194 C 183.119 146.647,183.839 147.400,185.386 148.867 M279.600 147.000 C 278.610 147.530,277.942 147.972,278.116 147.982 C 278.541 148.006,281.600 146.434,281.600 146.192 C 281.600 145.927,281.617 145.920,279.600 147.000 M227.862 149.131 C 226.961 150.128,226.605 149.667,232.500 155.142 L 237.800 160.065 232.633 155.054 C 228.199 150.755,227.539 149.956,227.979 149.425 C 228.430 148.882,231.376 148.793,252.146 148.700 L 275.800 148.594 252.162 148.497 C 229.701 148.405,228.491 148.436,227.862 149.131 M131.400 155.200 C 133.150 156.960,134.671 158.400,134.781 158.400 C 134.891 158.400,133.550 156.960,131.800 155.200 C 130.050 153.440,128.529 152.000,128.419 152.000 C 128.309 152.000,129.650 153.440,131.400 155.200 M173.006 156.865 C 173.175 157.309,173.016 157.593,172.529 157.719 C 171.904 157.880,171.896 157.914,172.476 157.954 C 173.370 158.015,173.812 157.251,173.221 156.665 C 172.864 156.311,172.813 156.358,173.006 156.865 M168.400 159.000 C 167.850 159.314,167.580 159.572,167.800 159.572 C 168.020 159.572,168.650 159.314,169.200 159.000 C 169.750 158.686,170.020 158.428,169.800 158.428 C 169.580 158.428,168.950 158.686,168.400 159.000 M187.200 159.200 C 187.970 159.622,188.780 159.966,189.000 159.966 C 189.220 159.966,188.770 159.622,188.000 159.200 C 187.230 158.778,186.420 158.434,186.200 158.434 C 185.980 158.434,186.430 158.778,187.200 159.200 M141.600 165.000 C 144.343 167.750,146.678 170.000,146.788 170.000 C 146.898 170.000,144.743 167.750,142.000 165.000 C 139.257 162.250,136.922 160.000,136.812 160.000 C 136.702 160.000,138.857 162.250,141.600 165.000 M163.744 161.739 C 162.455 162.695,161.040 163.908,160.600 164.433 C 160.160 164.958,160.556 164.724,161.481 163.913 C 162.405 163.101,163.890 161.955,164.781 161.365 C 166.253 160.391,166.672 160.000,166.244 160.000 C 166.158 160.000,165.033 160.782,163.744 161.739 M189.600 160.148 C 189.600 160.241,190.505 160.898,191.612 161.608 C 192.719 162.318,194.546 163.912,195.674 165.149 C 196.801 166.387,197.335 166.831,196.859 166.135 C 195.394 163.989,189.600 159.211,189.600 160.148 M240.452 162.700 C 240.481 162.865,242.146 164.526,244.152 166.392 L 247.800 169.784 244.208 166.092 C 240.575 162.357,240.358 162.161,240.452 162.700 M265.105 165.883 C 265.602 165.979,266.322 165.975,266.705 165.875 C 267.087 165.775,266.680 165.696,265.800 165.701 C 264.920 165.705,264.607 165.787,265.105 165.883 M306.100 165.876 C 306.485 165.976,307.115 165.976,307.500 165.876 C 307.885 165.775,307.570 165.693,306.800 165.693 C 306.030 165.693,305.715 165.775,306.100 165.876 M311.093 166.968 C 312.244 167.507,313.864 168.430,314.693 169.019 L 316.200 170.089 315.000 169.022 C 313.655 167.827,311.504 166.633,310.000 166.245 C 309.450 166.103,309.942 166.429,311.093 166.968 M176.500 167.091 C 177.325 167.178,178.675 167.178,179.500 167.091 C 180.325 167.005,179.650 166.934,178.000 166.934 C 176.350 166.934,175.675 167.005,176.500 167.091 M257.000 170.400 C 255.472 171.940,254.397 173.178,254.611 173.152 C 254.998 173.104,260.299 167.600,259.958 167.600 C 259.859 167.600,258.528 168.860,257.000 170.400 M170.593 168.739 C 169.355 169.494,166.490 172.338,165.893 173.405 C 165.710 173.733,166.694 172.876,168.080 171.501 C 169.466 170.125,170.960 168.786,171.400 168.524 C 171.840 168.261,172.110 168.037,172.000 168.025 C 171.890 168.013,171.257 168.334,170.593 168.739 M184.585 168.492 C 185.017 168.771,186.452 169.990,187.774 171.200 C 189.736 172.996,189.927 173.106,188.814 171.800 C 187.263 169.980,186.236 169.123,184.800 168.451 C 183.950 168.054,183.918 168.060,184.585 168.492 M156.581 170.037 C 156.229 170.718,156.012 171.345,156.099 171.432 C 156.186 171.519,156.556 170.962,156.922 170.195 C 157.744 168.470,157.459 168.338,156.581 170.037 M208.800 169.725 C 208.800 169.794,209.385 170.379,210.100 171.025 L 211.400 172.200 210.225 170.900 C 209.130 169.688,208.800 169.416,208.800 169.725 M150.571 173.480 C 154.432 177.457,154.576 177.519,154.978 175.376 C 155.126 174.588,155.343 173.641,155.461 173.272 C 155.642 172.706,155.609 172.693,155.257 173.192 C 155.027 173.517,154.721 174.484,154.576 175.340 L 154.313 176.897 150.657 173.349 L 147.000 169.800 150.571 173.480 M250.621 172.500 C 253.704 175.331,254.208 175.437,251.272 172.636 C 249.983 171.406,248.794 170.400,248.632 170.400 C 248.469 170.400,249.364 171.345,250.621 172.500 M316.764 171.400 C 317.458 172.757,317.987 173.422,317.994 172.944 C 317.997 172.694,317.630 172.064,317.177 171.544 C 316.531 170.802,316.442 170.771,316.764 171.400 M200.063 172.200 C 200.062 172.420,200.303 173.230,200.600 174.000 C 200.897 174.770,201.145 175.130,201.152 174.800 C 201.158 174.470,200.917 173.660,200.614 173.000 C 200.312 172.340,200.064 171.980,200.063 172.200 M213.374 173.893 C 214.240 174.824,215.035 175.499,215.141 175.393 C 215.247 175.287,215.256 175.155,215.162 175.100 C 215.068 175.045,214.273 174.370,213.396 173.601 L 211.800 172.201 213.374 173.893 M190.867 175.620 C 191.101 176.292,191.367 176.767,191.457 176.676 C 191.656 176.478,190.901 174.400,190.631 174.400 C 190.527 174.400,190.633 174.949,190.867 175.620 M202.394 175.211 C 202.155 175.657,201.789 175.917,201.580 175.788 C 201.371 175.658,201.200 175.743,201.200 175.976 C 201.200 176.677,201.805 176.459,202.800 175.400 C 203.317 174.850,203.534 174.400,203.284 174.400 C 203.033 174.400,202.633 174.765,202.394 175.211 M318.600 178.200 C 318.600 180.096,318.717 181.232,318.860 180.724 C 319.003 180.216,319.120 179.080,319.120 178.200 C 319.120 177.320,319.003 176.184,318.860 175.676 C 318.717 175.168,318.600 176.304,318.600 178.200 M164.446 176.439 C 164.201 177.143,164.013 177.918,164.028 178.160 C 164.044 178.402,164.314 177.896,164.630 177.035 C 164.945 176.174,165.133 175.400,165.048 175.315 C 164.962 175.229,164.692 175.735,164.446 176.439 M216.800 176.950 C 217.350 177.571,218.340 178.450,219.000 178.904 C 220.426 179.885,220.043 179.464,217.600 177.368 C 216.404 176.341,216.136 176.201,216.800 176.950 M163.701 181.000 C 163.705 181.880,163.787 182.193,163.883 181.695 C 163.979 181.198,163.975 180.478,163.875 180.095 C 163.775 179.713,163.696 180.120,163.701 181.000 M192.109 181.200 C 192.109 182.190,192.187 182.595,192.282 182.100 C 192.378 181.605,192.378 180.795,192.282 180.300 C 192.187 179.805,192.109 180.210,192.109 181.200 M220.400 180.054 C 220.400 180.228,222.479 182.129,232.097 190.747 C 232.924 191.487,233.600 192.002,233.600 191.891 C 233.600 191.780,231.125 189.477,228.100 186.773 C 225.075 184.068,222.105 181.405,221.500 180.853 C 220.895 180.302,220.400 179.942,220.400 180.054 M317.053 184.500 L 316.333 185.800 317.158 184.800 C 317.889 183.913,318.214 183.200,317.886 183.200 C 317.824 183.200,317.449 183.785,317.053 184.500 M164.048 184.000 C 164.042 184.330,164.283 185.140,164.586 185.800 C 165.293 187.345,165.303 186.626,164.600 184.800 C 164.303 184.030,164.055 183.670,164.048 184.000 M204.200 186.986 C 205.740 188.467,208.890 191.506,211.199 193.739 C 215.333 197.737,215.346 197.745,211.999 194.271 C 210.130 192.330,206.980 189.291,205.000 187.517 C 202.118 184.936,201.958 184.830,204.200 186.986 M190.695 186.796 C 190.348 187.678,190.149 188.400,190.253 188.400 C 190.523 188.400,191.678 185.545,191.486 185.352 C 191.397 185.264,191.041 185.913,190.695 186.796 M154.621 187.100 C 154.937 187.705,155.196 188.455,155.198 188.767 C 155.199 189.078,155.308 189.225,155.440 189.093 C 155.764 188.769,154.827 186.000,154.393 186.000 C 154.203 186.000,154.306 186.495,154.621 187.100 M141.598 199.100 L 129.400 211.400 141.700 199.202 C 153.131 187.867,154.180 186.800,153.898 186.800 C 153.841 186.800,148.306 192.335,141.598 199.100 M200.480 188.280 C 199.888 190.209,200.175 190.495,200.800 188.600 C 201.064 187.801,201.202 187.069,201.107 186.974 C 201.012 186.878,200.730 187.466,200.480 188.280 M314.162 187.662 L 313.400 188.524 314.500 187.816 C 315.634 187.086,315.849 186.800,315.262 186.800 C 315.076 186.800,314.581 187.188,314.162 187.662 M188.383 190.500 C 187.640 191.435,187.348 191.946,187.735 191.636 C 188.463 191.051,190.177 188.800,189.894 188.800 C 189.806 188.800,189.126 189.565,188.383 190.500 M156.000 190.553 C 156.000 190.982,157.190 193.200,157.421 193.200 C 157.531 193.200,157.323 192.615,156.959 191.900 C 156.217 190.440,156.000 190.136,156.000 190.553 M273.375 191.700 L 272.200 193.000 273.417 191.905 L 274.634 190.809 291.217 190.700 L 307.800 190.591 291.175 190.495 L 274.550 190.400 273.375 191.700 M168.600 191.799 C 169.260 192.373,170.340 193.126,171.000 193.472 C 172.645 194.335,172.206 193.941,169.600 192.214 C 168.190 191.280,167.831 191.131,168.600 191.799 M274.400 195.231 C 279.653 200.375,283.502 203.891,281.000 201.261 C 279.680 199.873,277.160 197.464,275.400 195.908 C 273.278 194.031,272.941 193.803,274.400 195.231 M178.200 194.800 L 175.000 195.053 178.000 195.099 C 179.650 195.123,181.360 194.989,181.800 194.800 C 182.241 194.610,182.331 194.477,182.000 194.501 C 181.670 194.526,179.960 194.661,178.200 194.800 M159.527 196.300 C 160.183 197.125,161.222 198.250,161.836 198.800 C 162.449 199.350,161.977 198.675,160.787 197.300 C 158.396 194.539,157.660 193.955,159.527 196.300 M195.200 197.134 C 193.990 198.407,192.450 199.888,191.778 200.424 C 191.106 200.961,190.746 201.302,190.978 201.182 C 192.144 200.581,195.277 197.818,196.398 196.402 C 198.150 194.190,197.788 194.411,195.200 197.134 M228.083 200.115 C 226.232 202.001,226.051 202.416,227.100 202.368 C 227.578 202.347,227.629 202.269,227.262 202.122 C 226.889 201.974,227.252 201.370,228.445 200.154 C 229.392 199.189,230.077 198.400,229.967 198.400 C 229.857 198.400,229.009 199.172,228.083 200.115 M163.469 200.032 C 163.966 200.633,166.400 202.164,166.400 201.876 C 166.400 201.783,165.635 201.202,164.700 200.585 C 163.765 199.968,163.211 199.720,163.469 200.032 M218.209 200.478 C 218.348 200.841,218.763 201.261,219.131 201.412 C 219.725 201.655,219.710 201.723,219.000 202.015 C 218.352 202.281,218.328 202.349,218.876 202.372 C 219.998 202.419,220.034 201.772,218.965 200.768 C 218.280 200.124,218.037 200.031,218.209 200.478 M187.400 202.778 C 186.520 203.195,185.913 203.550,186.051 203.568 C 186.440 203.618,189.200 202.414,189.200 202.195 C 189.200 201.927,189.199 201.927,187.400 202.778 M168.400 203.000 C 168.950 203.314,169.580 203.572,169.800 203.572 C 170.020 203.572,169.750 203.314,169.200 203.000 C 168.650 202.686,168.020 202.428,167.800 202.428 C 167.580 202.428,167.850 202.686,168.400 203.000 M214.000 203.431 L 213.000 204.033 214.000 203.768 C 215.452 203.384,216.403 202.824,215.600 202.826 C 215.270 202.827,214.550 203.099,214.000 203.431 M230.746 203.416 C 231.486 203.737,232.206 203.994,232.346 203.986 C 232.866 203.957,230.576 202.828,230.000 202.830 C 229.670 202.831,230.006 203.094,230.746 203.416 M172.500 204.276 C 173.811 204.618,173.200 205.408,166.374 212.204 C 162.620 215.942,159.356 219.360,159.120 219.800 C 158.884 220.240,158.763 220.510,158.851 220.400 C 158.939 220.290,162.426 216.727,166.600 212.482 C 174.160 204.794,174.781 203.893,172.400 204.053 C 171.975 204.081,172.004 204.146,172.500 204.276 M182.800 204.350 C 182.800 205.002,199.170 220.466,199.587 220.208 C 199.814 220.068,199.979 219.648,199.954 219.276 C 199.912 218.667,199.889 218.669,199.724 219.300 C 199.624 219.685,199.445 220.000,199.326 220.000 C 198.590 220.000,183.234 204.625,183.685 204.339 C 184.065 204.098,184.017 204.011,183.500 204.006 C 183.115 204.003,182.800 204.158,182.800 204.350 M210.344 205.223 C 209.602 205.869,209.571 205.958,210.200 205.636 C 211.557 204.942,212.222 204.413,211.744 204.406 C 211.494 204.403,210.864 204.770,210.344 205.223 M284.000 204.501 C 284.000 204.572,284.855 205.330,285.900 206.184 C 287.647 207.612,287.703 207.632,286.600 206.434 C 285.544 205.287,284.000 204.139,284.000 204.501 M206.311 208.454 C 203.933 210.778,203.917 210.807,206.000 208.991 C 209.146 206.249,209.403 206.000,209.096 206.000 C 208.945 206.000,207.691 207.104,206.311 208.454 M238.837 208.427 C 240.287 209.842,241.872 211.540,242.359 212.200 C 242.846 212.860,243.064 213.026,242.845 212.568 C 242.263 211.358,238.937 207.748,237.465 206.729 C 236.769 206.248,237.386 207.012,238.837 208.427 M315.505 207.883 C 316.002 207.979,316.722 207.975,317.105 207.875 C 317.487 207.775,317.080 207.696,316.200 207.701 C 315.320 207.705,315.007 207.787,315.505 207.883 M320.576 208.809 C 321.663 209.233,322.616 209.518,322.693 209.440 C 322.884 209.250,319.707 207.995,319.092 208.019 C 318.821 208.029,319.489 208.385,320.576 208.809 M323.340 209.903 C 323.496 210.156,324.191 210.767,324.884 211.260 C 325.577 211.754,326.017 211.950,325.860 211.697 C 325.704 211.444,325.009 210.833,324.316 210.340 C 323.623 209.846,323.183 209.650,323.340 209.903 M253.178 212.300 L 251.800 213.800 253.295 212.426 L 254.791 211.052 255.695 211.866 C 256.193 212.314,256.870 212.821,257.200 212.993 C 257.530 213.165,257.170 212.749,256.400 212.069 C 254.652 210.525,254.821 210.513,253.178 212.300 M221.300 211.891 C 222.125 211.978,223.475 211.978,224.300 211.891 C 225.125 211.805,224.450 211.734,222.800 211.734 C 221.150 211.734,220.475 211.805,221.300 211.891 M216.900 212.789 C 215.965 213.214,215.200 213.650,215.200 213.758 C 215.200 213.866,215.965 213.626,216.900 213.224 C 217.835 212.822,218.870 212.397,219.200 212.278 C 219.733 212.087,219.733 212.061,219.200 212.040 C 218.870 212.028,217.835 212.365,216.900 212.789 M226.400 212.278 C 226.730 212.397,227.765 212.822,228.700 213.224 C 229.635 213.626,230.400 213.866,230.400 213.758 C 230.400 213.447,227.066 212.015,226.400 212.040 C 225.867 212.061,225.867 212.087,226.400 212.278 M326.627 213.600 C 327.452 215.312,327.603 215.494,327.591 214.767 C 327.586 214.455,327.215 213.750,326.767 213.200 L 325.952 212.200 326.627 213.600 M201.180 215.239 C 200.720 216.140,200.413 216.946,200.497 217.030 C 200.581 217.114,201.041 216.376,201.519 215.391 C 202.609 213.147,202.315 213.015,201.180 215.239 M123.016 217.940 L 119.433 221.800 123.316 218.008 C 125.452 215.922,127.200 214.167,127.200 214.108 C 127.200 213.613,126.090 214.630,123.016 217.940 M258.400 214.087 C 258.400 214.233,260.567 216.207,270.097 224.747 C 270.924 225.487,271.600 226.000,271.600 225.886 C 271.600 225.773,269.305 223.623,266.500 221.110 C 259.613 214.940,258.400 213.888,258.400 214.087 M244.510 216.391 C 244.973 217.486,245.422 218.311,245.509 218.224 C 245.698 218.035,244.127 214.400,243.857 214.400 C 243.753 214.400,244.047 215.296,244.510 216.391 M211.268 217.365 C 210.571 218.336,210.000 219.263,210.000 219.425 C 210.000 219.690,211.791 217.351,212.546 216.100 C 213.250 214.932,212.437 215.738,211.268 217.365 M233.054 216.100 C 233.809 217.351,235.600 219.690,235.600 219.425 C 235.600 219.089,233.146 215.600,232.909 215.600 C 232.823 215.600,232.889 215.825,233.054 216.100 M246.833 218.767 C 246.412 219.188,245.962 219.428,245.833 219.300 C 245.705 219.172,245.600 219.277,245.600 219.533 C 245.600 220.275,246.185 220.080,247.200 219.000 C 248.293 217.836,247.970 217.630,246.833 218.767 M151.995 227.100 L 145.800 233.400 152.100 227.205 C 155.565 223.798,158.400 220.963,158.400 220.905 C 158.400 220.619,157.751 221.247,151.995 227.100 M326.925 223.241 C 326.445 224.318,326.126 225.200,326.217 225.200 C 326.509 225.200,328.052 221.954,327.923 221.611 C 327.856 221.430,327.406 222.163,326.925 223.241 M118.581 223.237 C 118.229 223.918,118.012 224.545,118.099 224.632 C 118.186 224.719,118.556 224.162,118.922 223.395 C 119.744 221.670,119.459 221.538,118.581 223.237 M208.579 224.232 C 208.425 225.460,208.460 227.215,208.655 228.132 C 208.953 229.529,209.012 229.165,209.015 225.900 C 209.019 221.394,208.961 221.173,208.579 224.232 M236.870 225.450 C 236.831 226.357,236.711 227.707,236.601 228.450 L 236.403 229.800 236.823 228.462 C 237.053 227.727,237.174 226.377,237.091 225.462 L 236.940 223.800 236.870 225.450 M324.200 226.800 C 323.369 227.460,322.850 227.993,323.045 227.984 C 323.436 227.966,326.309 225.600,325.940 225.600 C 325.813 225.600,325.031 226.140,324.200 226.800 M117.293 228.000 C 117.293 228.770,117.375 229.085,117.476 228.700 C 117.576 228.315,117.576 227.685,117.476 227.300 C 117.375 226.915,117.293 227.230,117.293 228.000 M246.250 229.248 C 245.917 230.916,246.239 231.242,246.600 229.601 L 246.875 228.346 249.403 230.773 C 250.793 232.108,252.062 233.200,252.223 233.200 C 252.523 233.200,247.316 228.293,246.795 228.084 C 246.636 228.021,246.391 228.545,246.250 229.248 M274.615 228.424 C 274.847 228.799,277.585 229.748,277.805 229.529 C 277.888 229.446,277.160 229.092,276.187 228.742 C 275.214 228.392,274.507 228.249,274.615 228.424 M319.400 229.011 C 318.520 229.301,318.160 229.544,318.600 229.551 C 319.040 229.558,319.940 229.317,320.600 229.014 C 322.112 228.322,321.496 228.321,319.400 229.011 M288.100 229.900 C 293.545 229.963,302.455 229.963,307.900 229.900 C 313.345 229.837,308.890 229.785,298.000 229.785 C 287.110 229.785,282.655 229.837,288.100 229.900 M117.293 231.200 C 117.293 231.970,117.375 232.285,117.476 231.900 C 117.576 231.515,117.576 230.885,117.476 230.500 C 117.375 230.115,117.293 230.430,117.293 231.200 M190.208 238.755 L 181.815 247.400 190.459 238.853 C 196.087 233.287,199.178 230.496,199.319 230.853 C 199.472 231.237,199.546 231.191,199.568 230.700 C 199.634 229.256,198.388 230.328,190.208 238.755 M233.883 234.244 C 233.049 235.430,232.448 236.400,232.549 236.400 C 232.829 236.400,235.716 232.381,235.548 232.225 C 235.467 232.150,234.717 233.059,233.883 234.244 M210.766 233.500 C 210.983 233.885,211.634 234.740,212.212 235.400 C 213.008 236.308,212.948 236.138,211.964 234.700 C 210.680 232.822,210.002 232.144,210.766 233.500 M245.200 233.284 C 245.200 233.404,244.928 234.154,244.595 234.951 C 244.262 235.748,244.091 236.400,244.215 236.400 C 244.565 236.400,245.675 233.542,245.423 233.290 C 245.301 233.167,245.200 233.165,245.200 233.284 M253.400 234.352 C 254.522 235.669,271.600 252.137,271.600 251.902 C 271.600 251.796,267.325 247.592,262.100 242.561 C 256.875 237.529,252.960 233.836,253.400 234.352 M143.675 235.502 C 142.946 236.326,141.694 237.675,140.894 238.500 C 140.093 239.325,139.529 240.000,139.641 240.000 C 139.752 240.000,141.162 238.650,142.774 237.000 C 144.385 235.350,145.545 234.001,145.352 234.002 C 145.158 234.003,144.404 234.678,143.675 235.502 M200.400 234.553 C 200.400 234.982,201.590 237.200,201.821 237.200 C 201.931 237.200,201.723 236.615,201.359 235.900 C 200.617 234.440,200.400 234.136,200.400 234.553 M120.800 239.000 C 121.546 239.770,122.247 240.400,122.357 240.400 C 122.467 240.400,121.946 239.770,121.200 239.000 C 120.454 238.230,119.753 237.600,119.643 237.600 C 119.533 237.600,120.054 238.230,120.800 239.000 M202.745 239.000 C 203.370 240.284,205.875 243.037,207.707 244.452 C 208.876 245.355,208.584 244.961,206.763 243.180 C 205.313 241.761,203.728 240.060,203.241 239.400 C 202.754 238.740,202.531 238.560,202.745 239.000 M217.200 238.969 C 217.750 239.301,218.470 239.573,218.800 239.574 C 219.603 239.576,218.652 239.016,217.200 238.632 L 216.200 238.367 217.200 238.969 M227.400 238.986 C 226.740 239.288,226.470 239.543,226.800 239.553 C 227.130 239.563,227.850 239.314,228.400 239.000 C 229.673 238.272,228.980 238.262,227.400 238.986 M123.544 241.177 C 124.064 241.630,124.694 241.997,124.944 241.994 C 125.422 241.987,124.757 241.458,123.400 240.764 C 122.771 240.442,122.802 240.531,123.544 241.177 M127.002 242.832 C 127.441 243.004,129.150 243.142,130.800 243.140 C 134.610 243.136,134.010 242.910,129.602 242.691 C 127.734 242.597,126.564 242.661,127.002 242.832 M236.800 244.849 C 235.406 246.071,235.405 246.072,236.688 245.219 C 237.396 244.748,238.082 244.191,238.212 243.981 C 238.597 243.357,238.277 243.554,236.800 244.849 M233.600 246.800 C 232.830 247.222,232.344 247.574,232.520 247.583 C 232.944 247.605,235.200 246.432,235.200 246.190 C 235.200 245.928,235.177 245.937,233.600 246.800 M229.625 248.440 C 228.635 248.836,232.550 253.550,234.978 254.884 C 235.405 255.119,234.272 253.904,232.459 252.183 L 229.163 249.055 230.282 248.560 C 231.601 247.976,231.042 247.874,229.625 248.440 M216.144 248.846 L 217.288 249.296 213.544 253.090 C 211.485 255.177,210.160 256.648,210.600 256.358 C 211.703 255.634,217.781 249.248,217.570 249.036 C 217.475 248.942,216.859 248.759,216.199 248.630 L 215.000 248.395 216.144 248.846 M173.392 256.100 L 169.400 260.200 173.500 256.208 C 175.755 254.012,177.600 252.167,177.600 252.108 C 177.600 251.818,177.101 252.292,173.392 256.100 M274.467 254.700 C 274.540 254.865,276.670 256.976,279.200 259.392 L 283.800 263.784 279.207 259.092 C 274.852 254.644,274.155 253.998,274.467 254.700 M204.208 262.792 L 198.627 268.384 199.992 269.792 C 200.743 270.566,201.514 271.200,201.707 271.200 C 201.899 271.200,201.380 270.562,200.553 269.781 L 199.048 268.362 204.619 262.781 C 207.683 259.712,210.099 257.200,209.989 257.200 C 209.879 257.200,207.278 259.716,204.208 262.792 M238.400 258.047 C 238.400 258.152,240.228 260.030,242.462 262.219 C 244.695 264.409,246.360 265.930,246.162 265.600 C 245.743 264.906,238.400 257.760,238.400 258.047 M168.555 261.412 C 168.190 261.969,167.970 262.504,168.067 262.600 C 168.163 262.697,168.558 262.241,168.944 261.588 C 169.798 260.142,169.481 259.999,168.555 261.412 M246.800 266.103 C 246.800 266.212,251.435 270.772,257.100 276.237 C 262.765 281.702,266.860 285.577,266.200 284.849 C 264.481 282.951,246.800 265.866,246.800 266.103 M166.909 268.000 C 166.909 268.990,166.987 269.395,167.082 268.900 C 167.178 268.405,167.178 267.595,167.082 267.100 C 166.987 266.605,166.909 267.010,166.909 268.000 M291.000 270.800 C 293.412 273.220,295.476 275.200,295.586 275.200 C 295.696 275.200,293.812 273.220,291.400 270.800 C 288.988 268.380,286.924 266.400,286.814 266.400 C 286.704 266.400,288.588 268.380,291.000 270.800 M206.400 275.800 C 208.481 277.890,210.274 279.600,210.384 279.600 C 210.494 279.600,208.881 277.890,206.800 275.800 C 204.719 273.710,202.926 272.000,202.816 272.000 C 202.706 272.000,204.319 273.710,206.400 275.800 M171.400 278.400 C 172.259 279.280,173.052 280.000,173.162 280.000 C 173.272 280.000,172.659 279.280,171.800 278.400 C 170.941 277.520,170.148 276.800,170.038 276.800 C 169.928 276.800,170.541 277.520,171.400 278.400 M297.142 278.587 C 297.492 279.560,297.846 280.288,297.929 280.205 C 298.148 279.985,297.199 277.247,296.824 277.015 C 296.649 276.907,296.792 277.614,297.142 278.587 M213.186 282.200 C 216.614 285.942,216.655 285.981,215.696 284.600 C 215.238 283.940,213.909 282.500,212.742 281.400 C 210.784 279.554,210.818 279.615,213.186 282.200 M175.800 282.400 C 176.883 283.500,177.860 284.400,177.970 284.400 C 178.080 284.400,177.283 283.500,176.200 282.400 C 175.117 281.300,174.140 280.400,174.030 280.400 C 173.920 280.400,174.717 281.300,175.800 282.400 M298.128 283.600 C 298.128 285.030,298.201 285.615,298.289 284.900 C 298.378 284.185,298.378 283.015,298.289 282.300 C 298.201 281.585,298.128 282.170,298.128 283.600 M180.200 286.342 C 181.300 287.507,182.560 288.651,183.000 288.884 C 183.440 289.118,183.710 289.230,183.600 289.134 C 183.490 289.038,182.230 287.894,180.800 286.592 L 178.200 284.224 180.200 286.342 M296.678 289.405 C 296.312 290.172,296.095 290.800,296.196 290.800 C 296.470 290.800,297.684 288.351,297.501 288.168 C 297.414 288.081,297.044 288.638,296.678 289.405 M272.600 291.200 C 274.128 292.740,275.469 294.000,275.579 294.000 C 275.689 294.000,274.528 292.740,273.000 291.200 C 271.472 289.660,270.131 288.400,270.021 288.400 C 269.911 288.400,271.072 289.660,272.600 291.200 M186.000 291.612 C 186.990 292.559,189.105 294.585,190.700 296.113 C 192.295 297.642,193.600 298.751,193.600 298.577 C 193.600 298.263,189.413 294.319,186.000 291.419 L 184.200 289.889 186.000 291.612 M294.801 292.198 C 294.286 292.748,293.939 293.264,294.032 293.346 C 294.124 293.428,294.619 292.978,295.130 292.347 C 296.276 290.935,296.074 290.844,294.801 292.198 M218.584 310.600 C 218.584 320.500,218.636 324.493,218.700 319.473 C 218.763 314.453,218.763 306.353,218.700 301.473 C 218.636 296.593,218.584 300.700,218.584 310.600 M277.144 295.177 C 277.664 295.630,278.294 295.997,278.544 295.994 C 279.022 295.987,278.357 295.458,277.000 294.764 C 276.371 294.442,276.402 294.531,277.144 295.177 M283.091 297.089 C 283.801 297.177,285.061 297.179,285.891 297.092 C 286.721 297.005,286.140 296.933,284.600 296.931 C 283.060 296.929,282.381 297.000,283.091 297.089 M194.030 332.800 C 194.028 333.376,195.157 335.666,195.186 335.146 C 195.194 335.006,194.937 334.286,194.616 333.546 C 194.294 332.806,194.031 332.470,194.030 332.800 M216.881 334.609 C 216.402 335.594,216.094 336.400,216.197 336.400 C 216.468 336.400,218.084 333.151,217.903 332.970 C 217.819 332.886,217.359 333.624,216.881 334.609 M214.181 338.471 C 212.856 339.871,212.803 339.984,213.851 339.171 C 214.932 338.331,216.246 336.800,215.885 336.800 C 215.817 336.800,215.051 337.552,214.181 338.471 M198.000 339.142 C 198.000 339.612,202.328 341.806,202.640 341.493 C 202.758 341.376,202.223 341.072,201.452 340.817 C 200.681 340.563,199.589 339.992,199.025 339.548 C 198.461 339.105,198.000 338.922,198.000 339.142 M210.600 340.800 C 209.720 341.207,209.141 341.554,209.313 341.570 C 209.787 341.615,212.400 340.472,212.400 340.220 C 212.400 339.949,212.523 339.910,210.600 340.800 " stroke="none" fill="#afd9de" fill-rule="evenodd"></path></g></svg>
